PathFileType	4	(X/Y/Z)	G:\Shared drives\HPL_Drive\Pi-Spi Study\20230118_AMCsubject1\Trimmed_right_flex_18001_rotated.trc
DataRate	CameraRate	NumFrames	NumMarkers	Units	OrigDataRate	OrigDataStartFrame	OrigNumFrames
200.00	200.00	       5	35	mm	200.00	76	       200
Frame#	Time	C7			Sternum			r_AMC1			r_AMC2			r_AMC3			l_AMC1			l_AMC2			l_AMC3			PX			T8			r_humerous			r_elbow_medial			r_elbow_lateral			r_forearm			r_wrist_radius			r_wrist_ulna			r_MCP_1			r_MCP_3			l_humerous			l_elbow_medial			l_elbow_lateral			l_forearm			l_wrist_radius			l_wrist_ulna			l_MCP_1			l_MCP_3			r_ASIS			r_PSIS			l_ASIS			l_PSIS			r_IC			l_IC			TS			AI			AA			
		X1	Y1	Z1	X2	Y2	Z2	X3	Y3	Z3	X4	Y4	Z4	X5	Y5	Z5	X6	Y6	Z6	X7	Y7	Z7	X8	Y8	Z8	X9	Y9	Z9	X10	Y10	Z10	X11	Y11	Z11	X12	Y12	Z12	X13	Y13	Z13	X14	Y14	Z14	X15	Y15	Z15	X16	Y16	Z16	X17	Y17	Z17	X18	Y18	Z18	X19	Y19	Z19	X20	Y20	Z20	X21	Y21	Z21	X22	Y22	Z22	X23	Y23	Z23	X24	Y24	Z24	X25	Y25	Z25	X26	Y26	Z26	X27	Y27	Z27	X28	Y28	Z28	X29	Y29	Z29	X30	Y30	Z30	X31	Y31	Z31	X32	Y32	Z32	X33	Y33	Z33	X34	Y34	Z34	X35	Y35	Z35	

76	0.375	181.1853	1371.678	-233.6202	318.8066	1322.224	-229.6741	166.1701	1337.4189	-95.2279	198.5739	1372.5312	-79.9662	193.2837	1393.5745	-119.3576	193.5567	1314.1724	-388.6544	228.7391	1307.8098	-425.2093	251.7138	1348.7459	-400.3103	386.6595	1131.5321	-216.6183	152.738	1188.467	-226.9312	271.034	1474.762	-76.8981	374.7801	1562.8638	-9.543	318.0851	1578.5673	11.1347	342.1834	1742.7679	29.1317	340.9899	1817.1548	14.2387	386.21	1804.8601	35.0213	349.6904	1902.1373	18.7189	395.3895	1894.0959	32.1221	315.5905	1119.9135	-424.5516	263.8697	986.6003	-376.7674	258.2629	980.9917	-430.3442	304.4691	835.4561	-468.0591	353.7544	768.0335	-476.075	312.4669	760.3461	-459.9345	362.979	690.3816	-490.8947	321.9636	684.4548	-467.9628	348.9267	910.4487	-73.5718	163.8552	930.0833	-161.3791	359.0206	892.4561	-330.9695	169.0067	922.7506	-262.8568	267.7636	972.0046	-47.8051	272.5599	938.9937	-371.5865	105.6173	1284.7212	-125.067	142.1154	1207.7576	-68.3866	157.1274	1373.5983	-22.9484
77	0.38	181.1989	1371.6796	-233.6176	318.8295	1322.2523	-229.658	166.1592	1337.4236	-95.2148	198.584	1372.5563	-79.9751	193.2863	1393.5535	-119.3533	193.6356	1314.1697	-388.6581	228.8057	1307.8582	-425.2112	251.7721	1348.7606	-400.289	386.6675	1131.5177	-216.6253	152.7537	1188.4698	-226.9377	271.0591	1474.7728	-76.88	374.802	1562.8796	-9.5228	318.0915	1578.5443	11.1548	342.2388	1742.7577	29.1537	341.0488	1817.1437	14.2865	386.2648	1804.7833	35.0429	349.7522	1902.1238	18.7705	395.4438	1894.0951	32.1899	315.6328	1119.9884	-424.578	263.905	986.6062	-376.7866	258.2009	980.9011	-430.4092	304.5605	835.5087	-468.0668	353.8534	768.0429	-476.0945	312.5514	760.3811	-459.9778	362.9849	690.4747	-490.9315	322.053	684.465	-467.9796	348.9423	910.4586	-73.5526	163.8778	930.0853	-161.4042	359.0226	892.4479	-331.0039	169.0029	922.7626	-262.8554	267.8285	971.9726	-47.8024	272.5899	939.0097	-371.605	105.6372	1284.7002	-125.0133	142.0617	1208.0436	-67.9355	157.1599	1373.5881	-22.8999
78	0.385	181.2121	1371.667	-233.5973	318.8331	1322.2541	-229.6244	166.1666	1337.4429	-95.2027	198.5926	1372.5277	-79.9466	193.3037	1393.5465	-119.3388	193.7369	1313.7959	-388.0028	228.8573	1307.8578	-425.1708	251.7858	1348.7787	-400.2677	386.7176	1131.574	-216.5933	152.7567	1188.4662	-226.9344	271.0872	1474.7564	-76.8658	374.7877	1562.8458	-9.4006	318.1401	1578.5371	11.1651	342.2519	1742.7604	29.2066	341.1176	1817.1215	14.3165	386.2739	1804.8328	35.1209	349.8182	1902.1547	18.8282	395.4993	1894.0499	32.2498	315.7244	1119.9504	-424.5533	263.9797	986.6329	-376.8031	258.429	981.0228	-430.403	304.6428	835.5346	-468.0947	353.942	768.0961	-476.1262	312.6742	760.3952	-459.9968	363.0956	690.4538	-490.9429	322.1279	684.483	-468.045	348.9076	910.4342	-73.5362	163.9073	930.0869	-161.3725	359.0938	892.4851	-330.992	169.0181	922.7603	-262.8591	267.761	972.0673	-47.8296	272.6141	939.017	-371.612	105.6633	1284.6816	-125.0074	142.0819	1208.032	-67.9266	157.1869	1373.5642	-22.904
79	0.39	181.2099	1371.6685	-233.6083	318.8453	1322.2672	-229.6198	166.1589	1337.4208	-95.1902	198.6189	1372.5217	-79.9473	193.3232	1393.5588	-119.3242	193.6245	1314.261	-388.6402	228.8902	1307.8772	-425.1685	251.8528	1348.8141	-400.2584	386.7618	1131.5697	-216.6081	152.7805	1188.4689	-226.9308	271.1079	1474.729	-76.8572	375.4142	1562.8949	-8.9438	318.1698	1578.5073	11.1819	342.3208	1742.7471	29.2456	341.1816	1817.1119	14.3604	386.3575	1804.7537	35.1698	349.653	1902.3397	18.8683	395.596	1894.0825	32.2919	315.7571	1120.0844	-424.5387	264.0013	986.6422	-376.8489	258.503	981.0349	-430.4107	304.7309	835.5612	-468.1115	354.0041	768.1918	-476.146	312.7469	760.4387	-460.0514	363.1886	690.5338	-491.0053	322.2482	684.5307	-468.0254	348.9982	910.4554	-73.5609	163.9365	930.1206	-161.3695	359.1082	892.4701	-331.0102	169.0727	922.7684	-262.8524	267.8818	972.0384	-47.8166	272.623	939.0413	-371.5354	105.7103	1284.6691	-124.9582	142.1075	1207.9694	-67.9991	157.213	1373.5787	-22.8765
80	0.395	181.2228	1371.6816	-233.5889	318.8589	1322.2767	-229.6115	166.1871	1337.4282	-95.1874	198.6168	1372.5427	-79.933	193.3457	1393.5602	-119.3086	193.6748	1314.264	-388.6861	228.9428	1307.9325	-425.1711	251.8732	1348.8315	-400.2559	386.8026	1131.6071	-216.5845	152.8123	1188.4666	-226.9381	271.1326	1474.7264	-76.8445	374.8212	1562.8701	-9.3014	318.1779	1578.5039	11.2321	342.3773	1742.725	29.3066	341.233	1817.0907	14.3999	386.4035	1804.7676	35.2151	350.0232	1902.1635	18.9361	395.6519	1894.0408	32.3529	315.8527	1120.0549	-424.5505	264.061	986.6575	-376.8552	258.559	981.1033	-430.4442	304.8272	835.6026	-468.1379	354.1014	768.1854	-476.1403	312.8371	760.4475	-460.0543	363.2287	690.6038	-491.0968	322.3326	684.5595	-468.0428	348.9583	910.467	-73.5435	163.9678	930.0889	-161.3583	359.1361	892.4763	-331.022	169.0837	922.7562	-262.8594	267.8552	972.0775	-47.821	272.6701	939.0466	-371.5731	105.7195	1284.6501	-124.9434	142.1103	1207.999	-67.8824	157.2174	1373.5288	-22.878
